<?xml version="1.0" encoding="utf-8"?>
<!-- Generator: Adobe Illustrator 22.0.1, SVG Export Plug-In . SVG Version: 6.00 Build 0)  -->
<svg version="1.0" id="Layer_1" xmlns="http://www.w3.org/2000/svg" xmlns:xlink="http://www.w3.org/1999/xlink" x="0px" y="0px"
	 width="1200px" height="1200px" viewBox="0 0 1200 1200" style="enable-background:new 0 0 1200 1200;" xml:space="preserve">
<style type="text/css">
	.st0{fill:#333333;}
</style>
<g>
	<path class="st0" d="M634.1,522.6c-13.5,4-21.3-4.4-27.8-12.2c3.7-9.6,14.7-12,20.9-19.1c-13.7-15.9-26.6,10.7-29.6,22.6
		C601.3,524.9,628.3,545.2,634.1,522.6z"/>
	<path class="st0" d="M595.9,453c5,8.3,5.1,21.6,12.2,27.8c6.8-1.3,19.9,3.7,19.1-5.2c-9.8,1.3-19.4-6.9-22.6-17.4
		c5-8.9,17.4-10.4,26.1-15.6C619.6,433,599.5,443.6,595.9,453z"/>
	<path class="st0" d="M625.5,513.9c4.9-0.3,7.4-3,7-8.7C625.1,498.9,618.2,509.9,625.5,513.9z"/>
	<path class="st0" d="M630.7,461.7c-0.2-4.4-2.5-6.8-6.9-7c-0.7,3.3-5,3.1-3.5,8.7c2,1.5,4.7,2.3,8.7,1.7
		C629.3,463.9,629,461.8,630.7,461.7z"/>
	<path class="st0" d="M656.7,567.8c-10.4-1-28.8,4.3-33-10.4c1.7-9.9,14.7-8.4,15.6-19.1c-17-5.9-24.3,12.8-26.1,27.8
		C620.8,575.1,652.3,591.2,656.7,567.8z"/>
	<path class="st0" d="M731.5,331.3c8.4-11.5-11.8-22.4-26.1-22.6c-9.7,8-29.4,39.1-3.5,38.2C692.7,320.4,720.8,303.8,731.5,331.3z"
		/>
	<path class="st0" d="M635.9,406.1c-2.4,2.2-2.4,8.2,0,10.4c5.7,0.4,8.4-2.1,8.7-7c-1.4-0.4-2-1.5-1.7-3.5
		C640.5,406.1,638.2,406.1,635.9,406.1z"/>
	<path class="st0" d="M637.6,559.1c3.3-0.4,3.8,2,7,1.7c2.4-2.2,2.4-8.2,0-10.4c-1.7,0-3.5,0-5.2,0
		C637.9,552.4,637.1,555.1,637.6,559.1z"/>
	<path class="st0" d="M712.4,329.6c-4,3.8-2.8,5.8,0,10.4c5.2,0,7.3-3.1,8.7-7C717.8,332.3,717.9,328.1,712.4,329.6z"/>
	<path class="st0" d="M675.9,597.3c0.6-4-0.3-6.7-1.7-8.7c-1.7,0-3.5,0-5.2,0c-4,3.8-2.8,5.8,0,10.4
		C672.2,599.5,672.7,597.1,675.9,597.3z"/>
	<path class="st0" d="M689.8,602.6c-6.6-2.9-17.7,11.5-29.6,3.5c-2.4-13.4,2.9-19.1,7-26.1c-17.9-5-20.8,16.8-17.4,34.8
		C661,627.1,691.1,622.8,689.8,602.6z"/>
	<path class="st0" d="M776.7,322.6c4.9,1.4,4.5-2.5,8.7-1.7c4.7-46.4-71.3-20.5-40,7c1.9-13.2,6.7-23.5,17.4-27.8
		C772.6,302.4,774,313.1,776.7,322.6z"/>
	<path class="st0" d="M924.5,421.7c-21-53.3-80.4-99.2-158.2-90.4c-64.7,7.3-113.1,57.9-126.9,106.1c-13.3,46.3-2.9,89.5,15.6,120
		c30.3,49.7,108.4,92.5,184.3,62.6C902.3,595.1,960.7,513.8,924.5,421.7z"/>
	<path class="st0" d="M815,646c2.4-2.2,2.4-8.2,0-10.4c-5.7-0.5-8.4,2.1-8.7,7C809.6,643.3,809.4,647.5,815,646z"/>
	<path class="st0" d="M881,308.7c-3.7-14.8-37.7-13.2-41.7,0C850,307.1,866.1,300.2,881,308.7z"/>
	<path class="st0" d="M741.9,632.1c-20,42.2,51.5,42.2,43.5,5.2c-16.4,0.4-12.6,21-29.6,20.9c-5.7-7.3-12.9-13.4-8.7-26.1
		C745.4,632.1,743.7,632.1,741.9,632.1z"/>
	<path class="st0" d="M655,341.8c-8.9,11.5-17.3,39.9,3.5,45.2c0.4-2,1.9-2.7,3.5-3.5c-5-8.7-11.5-25.6-1.7-34.8
		c14.2-2.6,20.1,3.1,26.1,8.7C695.8,344.5,672,339.3,655,341.8z"/>
	<path class="st0" d="M794.1,637.3c-6.5,17.5,6.7,30.3,19.1,34.8c12.1-6.7,37.8-30.2,13.9-41.7c-4.8,8.5-0.8,24.3-13.9,27.8
		C798.6,659.5,804,640.7,794.1,637.3z"/>
	<path class="st0" d="M667.2,367.8c2,1.5,4.7,2.3,8.7,1.7c2.4-2.2,2.4-8.2,0-10.4c-2.3,0-4.6,0-7,0
		C669.6,363.3,665.7,362.9,667.2,367.8z"/>
	<path class="st0" d="M714.1,621.7c-4.1-3.9-11.5-1.3-10.4,5.2C706.9,631.6,714.9,630.1,714.1,621.7z"/>
	<path class="st0" d="M762.8,642.6c0.8-5.5-2.2-7.1-5.2-8.7c-1.9,2.7-5.7,3.6-5.2,8.7C754.6,644.9,760.6,644.9,762.8,642.6z"/>
	<path class="st0" d="M695,609.5c-9.2,8.7-2.6,25.1,0,36.5c18.3,3.8,41.2-1.1,36.5-19.1c-11.8,2.7-13.4,15.6-31.3,12.2
		c-6.9-5.9-2.6-20.9,0-27.8C698,611.2,697.8,609,695,609.5z"/>
	<path class="st0" d="M615,393.9c-1.6,21.3,0.8,38.6,19.1,40c1.6-10.4-17.9-20.2-10.4-36.5c8.1-6.2,18.7-2,27.8,0
		C649.4,378.1,624.6,388,615,393.9z"/>
	<path class="st0" d="M974.9,449.6c-3-11.3-41.9-29.4-38.3-5.2c14.4-1.6,21.2,4.3,26.1,12.2c-2,11.3-17.9,8.8-22.6,17.4
		C957.1,477.8,971.9,465.3,974.9,449.6z"/>
	<path class="st0" d="M757.6,320.9c4.4,3.9,13.2,1.6,10.4-7C761.1,312.8,757.4,314.9,757.6,320.9z"/>
	<path class="st0" d="M978.4,510.4c-5.9-14.5-15.9-33.8-38.3-26.1c4.2,13.2,25.6,9.2,24.3,27.8c-2.7,11.5-24.1,2.3-27.8,8.7
		C950.4,532.8,973.1,525.7,978.4,510.4z"/>
	<path class="st0" d="M947.1,506.9c0.6-4-0.3-6.7-1.7-8.7c-5.7-0.5-8.4,2.1-8.7,7C938.7,507.2,942.8,507.2,947.1,506.9z"/>
	<path class="st0" d="M947.1,461.7c0.2-4.3,0.3-8.4-1.7-10.4c-1.7,0-3.5,0-5.2,0C936.2,455.7,938.5,464.5,947.1,461.7z"/>
	<path class="st0" d="M879.3,355.7c8.9,6.6,24.8-11.2,34.8,3.5c3.4,13.8-5.9,14.9-7,24.3c8.7,2.3,7.4-5.4,13.9-5.2
		c0-8.7,0-17.4,0-26.1C908.8,347.1,883.9,335.1,879.3,355.7z"/>
	<path class="st0" d="M968,480.9c10.8-6.6,18.3-16.5,20.9-31.3c-9.4-9.7-16.4-21.8-29.6-27.8c8.2-6.3,7.7-21.3,10.4-33
		c-8.1-9.3-22.1-12.7-34.8-17.4c8.7-9.1-0.4-23.2-1.7-33c-15.4-1.2-22.8-8.2-38.3-5.2c-4.8-6.8-5.5-17.7-12.2-22.6
		c-2.6,6.7,5.4,16.1,5.2,26.1c18.6-1.2,27.5,7.3,40,12.2c2,5.8,0.8,21.4,1.7,27.8c13.1,0.8,22.6,5.2,29.6,12.2
		c1.8,16.8-2.1,28-7,38.3c12.4,5.5,24.9,11,29.6,24.3c-3.9,12.3-13.4,19-19.1,29.6c12.5,6.6,17.7,20.6,22.6,34.8
		c-6.5,9.8-18.4,14-27.8,20.9c11.7,5.5,3.6,26.3,7,36.5c-11.4,4.3-18.3,13-34.8,12.2c6.4,15.8,1.8,33.3-7,43.5
		c-9.5,5.5-26.9,2.4-33,7c5.5,8.9,27.5,3.3,40,0c4.8-13.4,12.5-25.5,5.2-41.7c16.9-1.1,29-6.9,40-13.9c-0.9-11.4,1.1-19.8,1.7-29.6
		c-2.4-6.3-10.8-6.6-12.2-13.9c18.7,1.8,21.9-11.7,31.3-19.1C989.9,501.9,981.6,488.7,968,480.9z"/>
	<path class="st0" d="M1181.8,667.7c-21.6-32.1-41.3-65.4-65.6-95.9c-12.3-15.4-19.5-36.7-23.4-56.4
		c-15.4-76.8-61.9-133-118.7-181.8c-37-31.7-79.5-54.5-127.9-65.5c-17.7-4-34.6-12.2-53.2-10.3c-11.4,1.2-22.6,3.8-33.9,5.9
		c-19.3,3.4-38.7,7-58,10.3c-25.7,4.4-51.4,9.1-77.2,12.6c-9.3,1.3-19.2,0.5-28.6-0.9c-19.1-2.9-37.9-7.2-57-10.2
		c-16.8-2.6-28.5-12.5-39.1-24.7c-17.1-19.6-36.2-36.7-61.4-45.3c-8.6-2.9-17.6-5.5-26.6-6.2c-20.7-1.6-41.6-2-62.3-2.9
		c-17.1-0.7-28.8,12.1-43.4,17.3c-27.6,9.8-46.9,27.5-63,51.4c-6,8.9-19.8,12.4-29.7,18.9c-7.4,4.9-16.3,9.2-21.1,16.2
		c-14.2,20.6-34.4,26.6-57.4,27.2c-15.6,0.4-26.8-15.9-19.9-30.1c3.2-6.6,9.4-11.9,14.8-17.1c21-20,45-37.7,62.9-60.1
		c37.1-46.5,26.3-84.2-17.6-124.6c-9.4-8.6-23.2-12.3-35.1-18.2c-8.6-4.3-17-9-25.9-12.3c-4.9-1.9-10.8-1.3-16.2-1.9
		c-0.2,4.5,0.4,9.3-0.8,13.5c-1.5,5.4-4.4,10.5-6.9,15.6c-2.5,5.1-7.9,10.4-7.3,14.9c1.2,8.2,9.3,10.1,17,10.1
		c4.4,0,8.7-0.6,13.1-0.6c15.7-0.1,27.3,6.5,35.5,20.4c8.5,14.5,7.7,28-3,40.1c-8.4,9.6-17.9,18.4-27.9,26.2
		c-26.2,20.5-54.8,38.3-79.1,60.9c-22.7,21.1-36,48.7-30.2,82c4.6,26.1,17.9,47.3,35.4,66.3c18.4,20,40.3,36.5,65.3,45.8
		c16.4,6.1,36,4.8,54.1,4.7c10.7-0.1,21.3-4.3,33.6-7.1c-3.7,9-6.8,16.7-10,24.5c-1.3,3.1-3.5,6.2-3.5,9.3c-0.1,8,0.8,16,1.4,24
		c6.7-3,14.1-5,20.1-9c23.7-15.8,48-14.7,72.5-3.1c26.3,12.5,53.4,17,81.7,10.1c12.5-3.1,19.8,2.3,24.1,12.4
		c4.8,11.4,12.7,18.8,23.5,23.7c10.3,4.7,15.3,12.2,15.5,23.8c0.2,14.2-1.1,27.6-7.5,40.8c-14.4,29.6-28.4,59.5-41.6,89.7
		c-7.7,17.5-13.6,35.8-20.1,53.8c-4.6,12.8,1.9,24.3,7.4,34.2c7.8,14,18,27.2,29.5,38.5c17.7,17.5,30.7,36.4,32.7,62
		c0.6,7,3,14.4,6.5,20.5c12.3,21.3,23.2,20.4,42.4,9.2c4.9-2.8,9.6-6,14.4-9c0.7,1,1.5,2,2.2,3c-4.9,5.5-9.7,11.1-14.8,16.5
		c-7.8,8.2-12.5,17.3-8.7,28.7c4.1,12,14.9,18,25.4,18.2c30.3,0.7,60.9,4.3,90.8-4.5c14.7-4.3,26.5-24.8,19.1-37.9
		c-11.4-20.3-9.2-40.2-2.1-60.2c11.3-31.7,16.8-64.1,16.1-97.8c-0.5-22.3-0.8-44.6,0.1-66.8c0.4-10.8,2.8-21.8,6.2-32.1
		c3.8-11.7,7.6-11.5,19.3-6.4c25.8,11.3,52,21.7,78.2,32c3.9,1.5,8.6,1.1,12.9,1.2c11.6,0.3,23.2,0.3,34.9,0.5
		c32.6,0.8,33.7,1,34.1,33.3c0.2,15.1-3,30.5-6.4,45.4c-4.5,19.5-10.6,38.6-16.4,57.8c-7.9,26-23.7,47-42.7,65.6
		c-8.8,8.6-13.7,18.3-14.9,30.3c-1.3,13,2.7,17.6,16.2,17.5c16.9,0,33.9-0.4,50.8,0.2c8.5,0.3,17.1,1.8,25.4,3.8
		c17.9,4.3,37.7-9.9,36.8-28.2c-0.8-15.7-0.5-29.8,9-43.9c6.4-9.6,7.3-22.7,11.2-34.1c6.2-18.4,12.3-36.9,19.4-55
		c5.8-14.8,12.5-29.2,19.5-43.5c3.1-6.3,7.9-11.7,11.6-17.1c2.4,0.7,3.7,0.7,4.1,1.3c21,32.3,57.8,42.8,87.1,63.8
		c19.2,13.7,38.1,28.5,47.3,50.9c12,29.3,11.7,58.7-9.3,84.6c-7.5,9.2-7.2,19.1-4.4,28.4c1.2,3.9,9.4,7.8,14.6,8.1
		c14.8,0.7,29.7,0,44.5-1.3c9.8-0.8,19.5-3.7,29.3-5.3c4.3-0.7,8.6-1,12.9-1.1c18.4-0.4,27.4-13.8,21.1-30.9
		c-2.1-5.7-2.3-12.2-3-18.4c-3.1-25.4-5-51-9.5-76.1c-1.8-10.2-7.8-20.6-14.3-29c-19.1-25.1-40-48.9-59.1-74
		c-21-27.7-29.4-58.1-20.9-93.4c7.4-31.2,11-63.3,16.3-95.3c-0.2-0.1,2.8,0.5,3.4,2c11.5,28.6,33.6,49.9,51.7,73.8
		c11.3,15,18.6,30.7,21.3,49.4c1.4,9.6,5.4,20.1,11.6,27.2c8.9,10.3,11.1,20.7,9.2,33.2c-0.3,2.3,0.7,4.7,1.2,7.1
		c2.2-1.2,5-2,6.6-3.8C1197.9,718.4,1199,693.2,1181.8,667.7z M503.5,819.2c-13,0.2-21.4-5.9-28.1-16.3c-7.2-11.2-15.5-21.6-22.3-33
		c-2.3-3.9-4-10.9-2.1-14.1c9.2-15.2,22-27.2,39-37.4c2.1,8.5,3.6,14.5,5.1,20.5c5.8,22.8,11.6,45.6,17.4,68.4
		C514.4,815,512.5,819.1,503.5,819.2z M978.4,541.7c10.3,11.2-0.4,25.7,1.7,43.5c-12.5,4.9-21,13.7-36.5,15.7
		c4.9,17.7-8.5,28.9-12.2,43.5c-12.9-0.9-22.9,7.1-34.8,1.7c-5.3,13.8-16,22.3-22.6,34.8c-8.9-3.3-20.5-3.8-27.8-8.7
		c-13.8,5.9-22.4,17-34.8,24.3c-6.7-8.4-17.7-12.4-26.1-19.1c-11.1,7.4-27.3,9.7-40,15.6c-4.2-13.8-19.4-16.5-24.3-29.6
		c-10.2,8.2-29-2.7-36.5,1.7c-7.9-6.1-9.8-18-13.9-27.8c-18.7,0.8-29-6.9-45.2-8.7c2.7-10.9-2.3-23,1.7-34.8
		c-11.8-8.5-25-15.6-34.8-26.1c0.6-9.2,1.4-18.3,5.2-24.3c-9.1-7.7-17.3-16.3-24.3-26.1c1.8-15.6,5.5-29.3,15.6-36.5
		c-6.2-11.1-11.8-22.9-17.4-34.8c11.2-6.2,16.9-17.9,29.6-22.6c-2.2-15.2-4-30.8-8.7-43.5c13.2-3,21.6-10.9,34.8-13.9
		c0.9-20,12.9-28.9,15.7-46.9c9.9,1.1,21.1,0.9,29.6,3.5c8.5-11.2,18.6-20.8,24.3-34.8c9.9,2.9,25.3,0.2,31.3,7
		c18.7-11,40.8-33.5,60.9-10.4c8.6-7.6,29.8-2.7,36.5-12.2c9.8,5.2,15.8,14.4,20.9,24.3c26.1-11.6,49.6,6.3,52.2,29.6
		c15.7,1,31.2,5.9,43.5,5.2c-3.4,12.5,6,18.4,3.5,34.8c8.4,7.3,18.9,12.4,29.6,17.4c1.4,8.9,0.4,27.4-5.2,34.8
		c7.5,12.2,17.7,21.7,27.8,31.3c-6,10.8-8.8,24.8-19.1,31.3c11.3,9,17.8,22.8,24.3,36.5C997.4,528.3,989.5,536.6,978.4,541.7z"/>
	<path class="st0" d="M606.3,567.8c1.4-11.4,4.1-21.4,8.7-29.6c-12.3-5.1-20.2-14.6-24.3-27.8c4.2-8.5,7.9-17.6,12.2-26.1
		c-7.8-9-8.6-25.1-15.7-34.8c7.7-6.8,14-15,27.8-15.6c-4.8-12.5-6.4-28.4-7-45.2c9.4-5.1,19.2-9.8,33-10.4
		c-8.1-16.9,3.4-31.6,10.4-43.5c11.9,0.9,19.6-3.8,29.6,0c3.5-16.2,15.7-23.7,24.3-34.8c8.3,3.3,18.3,4.9,26.1,8.7
		c2.3-8.7,11.4-10.7,15.7-17.4c-9.9-0.6-11.6,6.9-17.4,10.4c-8.7-4.1-20.5-5-31.3-7c-8.5,18.6-21.7,40.3-52.2,31.3
		c-2.8,16-18.1,25.9-12.2,45.2c-14.1,1.5-21.4,9.9-33,13.9c3.6,13.2,3.6,30,7,43.5c-13.5,3.3-21.9,11.8-27.8,22.6
		c4.9,11.9,9.7,24,17.4,33c-26,14.7-16.3,50.1,10.4,55.6c-4.6,7-8.6,14.6-8.7,26.1c9.2,9.3,18.6,18.5,33,22.6
		C627.3,578.1,613.8,576,606.3,567.8z"/>
	<path class="st0" d="M788.9,298.3c4.9-10.7,23.4-7.9,34.8-12.2c6,4.4,8.3,12.5,15.6,15.6c-1.3-12.6-8.8-19-19.1-22.6
		c-9.9,5.8-25.3,6-33,13.9c-6.9-10.8-30.5-20.6-36.5-3.5C765,280.8,778.8,292.4,788.9,298.3z"/>
	<path class="st0" d="M842.8,651.2c-7.3,12.4-17.4,22-31.3,27.8c-11.7-3.4-16-14.2-26.1-19.1c-9.2,8.2-19.9,14.9-38.3,13.9
		c-3-10.9-16.5-11.4-15.7-26.1c-10.9,6.1-26.6,5.8-41.7,3.5c-4.6-5.8-4.9-16-7-24.3c-18,0.6-34.8,0.1-41.7-10.4
		c3.4-7.4-3.1-20.7,1.7-29.6c-2.5,0.9-9-2-8.7,1.7c4.2,5.2-5.6,20.8,0,34.8c12.2,2.9,24.4,13,40,7c6.1,7.2,6.9,19.7,12.2,27.8
		c19.6,1,26.6,4.1,40-3.5c3.4,15.2,15.4,21.7,26.1,29.6c15.6-1.2,23.8-9.8,33-17.4c7,3.2,22.2,23.2,29.6,22.6
		c7.4-0.6,23.8-25.9,29.6-29.6c2.6,11.3,18.5,9.3,29.6,12.2c1.7-11.7,19.7-16.2,13.9-29.6C881.9,663.6,858.9,664.3,842.8,651.2z"/>
	<path class="st0" d="M954.1,390.4c-7.6-7-38.1-13.4-40,3.5c9.3,5.6,24.8-3.3,31.3,10.4c-1.8,9.8-12.2,11-15.6,19.1
		C946.8,434.6,955.3,409,954.1,390.4z"/>
	<path class="st0" d="M874.1,313.9c-17.1-9.7-40.3,1.8-34.8,19.1c10.4-2.3,11-14.5,27.8-10.4c5.2,10.7,7.6,15.3,1.7,26.1
		C886.6,349.2,877.7,322,874.1,313.9z"/>
	<path class="st0" d="M893.2,373.1c1.3,0.4,3.4,0.1,3.5,1.7c4.4-0.2,6.7-2.5,7-7c-1.4-0.4-2-1.4-1.7-3.5
		C894.9,363.1,892,366,893.2,373.1z"/>
	<path class="st0" d="M957.5,567.8c9.9-23-14.2-49.2-27.8-31.3c6.2,8.3,16.9,12.1,15.6,27.8c-9.3,8.1-24.1,2.6-31.3,1.7
		C918.5,585.4,948.6,577.5,957.5,567.8z"/>
	<path class="st0" d="M806.3,319.2c3.1,1.5,4.4,4.8,10.4,3.5C821.9,313.7,807.8,308.6,806.3,319.2z"/>
	<path class="st0" d="M928,413c0.4-1.4,1.5-2,3.5-1.7c0-2.9,0-5.8,0-8.7c-2.9,0-5.8,0-8.7,0C921.8,408.8,924.2,411.6,928,413z"/>
	<path class="st0" d="M795.8,322.6c3.9-10,7.8-20,20.9-20.9c11.5,4.3,12.3,18.9,10.4,27.8c22.4-21.9-14.6-48.9-34.8-27.8
		C794.2,308.1,788.4,321.9,795.8,322.6z"/>
	<path class="st0" d="M931.5,559.1c0-2.9,0-5.8,0-8.7c-2.9,0-5.8,0-8.7,0C919.3,556.7,925.1,562.5,931.5,559.1z"/>
	<path class="st0" d="M870.6,654.7c16.8-5.9,14.2-44.1-3.5-41.7c-0.3,6.2,7.5,21.6-1.7,29.6c-13-0.4-15.7-11-22.6-17.4
		C838.6,641.8,854.8,652.4,870.6,654.7z"/>
	<path class="st0" d="M921,621.7c16.3-16.5-5.5-62.7-19.1-36.5c10.2,1.4,13.5,18.9,8.7,29.6c-13.6,0.6-24.3-10-31.3-10.4
		C875.7,620.7,903,631.8,921,621.7z"/>
	<path class="st0" d="M860.2,618.2c-1.7,0-3.5,0-5.2,0C846,630.8,869.2,630.8,860.2,618.2z"/>
	<path class="st0" d="M891.5,590.4c-4.1,4.7-3.9,10.9,5.2,10.4C901.3,597.7,899.9,589.6,891.5,590.4z"/>
</g>
</svg>
